<svg width="39" height="39" viewBox="0 0 39 39" fill="none" xmlns="http://www.w3.org/2000/svg">
<path d="M36 38H3C2.47005 37.9984 1.96224 37.7872 1.58751 37.4125C1.21277 37.0378 1.00156 36.53 1 36V3C1.00156 2.47005 1.21277 1.96224 1.58751 1.58751C1.96224 1.21277 2.47005 1.00156 3 1H36C36.53 1.00156 37.0378 1.21277 37.4125 1.58751C37.7872 1.96224 37.9984 2.47005 38 3V36C37.9984 36.53 37.7872 37.0378 37.4125 37.4125C37.0378 37.7872 36.53 37.9984 36 38Z" stroke="white" stroke-linecap="round" stroke-linejoin="round"/>
<path d="M14.6436 31.5962H21.62" stroke="white" stroke-linecap="round" stroke-linejoin="round"/>
<path d="M14.6436 20.8633H21.62" stroke="white" stroke-linecap="round" stroke-linejoin="round"/>
<path d="M14.6436 26.2297H19.1922" stroke="white" stroke-linecap="round" stroke-linejoin="round"/>
<path d="M14.6436 20.8633V31.5962" stroke="white" stroke-linecap="round" stroke-linejoin="round"/>
<path d="M24.3027 18.1251V7.40405L29.6687 18.1371L35.0357 7.42005V18.1371" stroke="white" stroke-linecap="round" stroke-linejoin="round"/>
<path d="M24.3027 20.8633L35.0356 31.5962" stroke="white" stroke-linecap="round" stroke-linejoin="round"/>
<path d="M35.0356 20.8633L24.3027 31.5962" stroke="white" stroke-linecap="round" stroke-linejoin="round"/>
<path d="M12.2568 18.1049L17.0373 7.40381" stroke="white" stroke-linecap="round" stroke-linejoin="round"/>
<path d="M21.6194 18.1368L17.0371 7.40381" stroke="white" stroke-linecap="round" stroke-linejoin="round"/>
<path d="M20.0869 14.5464H13.8467" stroke="white" stroke-linecap="round" stroke-linejoin="round"/>
</svg>
