<svg width="750" height="471" viewBox="0 0 750 471" fill="none" xmlns="http://www.w3.org/2000/svg">
<g clip-path="url(#clip0_31_35)">
<path d="M52.8769 28.2036H697.123C710.396 28.2036 721.154 38.7248 721.154 51.7111V258.461C721.154 258.461 648.46 306.481 564.237 339.666C430.471 400.126 236.699 442.796 223.434 442.796H52.8769C39.6044 442.796 28.8462 432.275 28.8462 419.289V51.7111C28.8462 38.7308 39.6115 28.2036 52.8769 28.2036ZM0 51.7111V419.289C0 447.85 23.6716 471 52.8769 471H697.123C726.321 471 750 447.845 750 419.289V51.7111C750 23.15 726.328 0 697.123 0H52.8769C23.6791 0 0 23.1554 0 51.7111Z" fill="white"/>
<path d="M64.8223 154.599V249.065H93.6606C108.995 249.065 120.069 245.689 129.789 238.16C141.34 229.24 148.171 215.799 148.171 201.898C148.171 174.018 125.844 154.599 93.8131 154.599H64.8223ZM116.886 225.565C110.681 230.791 102.62 233.072 89.857 233.072H84.5575V170.606H89.857C102.62 170.606 110.363 172.737 116.886 178.245C123.717 183.92 127.826 192.712 127.826 201.763C127.826 210.828 123.717 219.89 116.886 225.565Z" fill="white"/>
<path d="M157.258 249.065H177.008V154.599H157.258V249.065Z" fill="white"/>
<path d="M225.302 190.621C213.451 186.53 209.969 183.829 209.969 178.727C209.969 172.778 216.171 168.256 224.683 168.256C230.6 168.256 235.464 170.526 240.609 175.906L250.944 163.282C242.45 156.351 232.292 152.808 221.19 152.808C203.275 152.808 189.609 164.417 189.609 179.877C189.609 192.891 195.972 199.551 214.522 205.781C222.254 208.325 226.189 210.022 228.175 211.161C232.121 213.566 234.097 216.967 234.097 220.934C234.097 228.587 227.573 234.259 218.762 234.259C209.342 234.259 201.754 229.865 197.205 221.66L184.447 233.124C193.547 245.583 204.474 251.105 219.503 251.105C240.027 251.105 254.426 238.376 254.426 220.088C254.426 205.08 247.768 198.285 225.302 190.621Z" fill="white"/>
<path d="M260.656 201.642C260.656 229.408 284.025 250.937 314.1 250.937C322.604 250.937 329.884 249.379 338.866 245.434V223.744C330.968 231.116 323.973 234.091 315.019 234.091C295.127 234.091 281.009 220.635 281.009 201.507C281.009 183.369 295.577 169.063 314.1 169.063C323.524 169.063 330.651 172.198 338.866 179.69V158.012C330.193 153.91 323.066 152.209 314.569 152.209C284.647 152.209 260.656 174.176 260.656 201.642Z" fill="white"/>
<path d="M495.465 217.905L468.461 154.454H446.887L489.855 251.343H500.484L544.227 154.454H522.817L495.465 217.905Z" fill="white"/>
<path d="M553.157 249.065H609.168V233.072H572.893V207.573H607.83V191.573H572.893V170.606H609.168V154.599H553.157V249.065Z" fill="white"/>
<path d="M687.368 182.489C687.368 164.803 674.314 154.599 651.535 154.599H622.25V249.065H641.978V211.116H644.552L671.888 249.065H696.178L664.303 209.27C679.18 206.445 687.368 196.952 687.368 182.489ZM647.748 198.087H641.978V169.478H648.061C660.36 169.478 667.045 174.289 667.045 183.482C667.045 192.978 660.36 198.087 647.748 198.087Z" fill="white"/>
<path d="M345.298 201.817V201.784C345.298 174.029 369.415 151.562 399.165 151.562C428.915 151.562 453.032 174.029 453.032 201.784V201.817C453.032 229.572 428.915 252.072 399.165 252.072C369.415 252.072 345.298 229.572 345.298 201.817Z" fill="white"/>
</g>
<defs>
<clipPath id="clip0_31_35">
<rect width="750" height="471" fill="white"/>
</clipPath>
</defs>
</svg>
