<svg width="266" height="199" viewBox="0 0 266 199" fill="none" xmlns="http://www.w3.org/2000/svg">
<path d="M199.638 120.767H218.764C219.311 120.767 220.586 120.584 221.132 120.584C224.775 119.856 227.872 116.577 227.872 112.023C227.872 107.652 224.775 104.373 221.132 103.462C220.586 103.28 219.493 103.28 218.764 103.28H199.638V120.767Z" fill="url(#paint0_linear_327_36)"/>
<path d="M216.578 0C198.363 0 183.427 14.7543 183.427 33.1516V67.5782H230.24C231.333 67.5782 232.608 67.5782 233.518 67.7604C244.083 68.3068 251.916 73.7714 251.916 83.2433C251.916 90.7115 246.633 97.0868 236.797 98.3619V98.7262C247.544 99.4548 255.741 105.466 255.741 114.755C255.741 124.774 246.633 131.331 234.611 131.331H183.245V198.727H231.879C250.094 198.727 265.031 183.973 265.031 165.576V0H216.578Z" fill="url(#paint1_linear_327_36)"/>
<path d="M225.504 85.4291C225.504 81.0574 222.407 78.143 218.764 77.5966C218.4 77.5966 217.489 77.4144 216.943 77.4144H199.638V93.4438H216.943C217.489 93.4438 218.582 93.4438 218.764 93.2616C222.407 92.7152 225.504 89.8007 225.504 85.4291Z" fill="url(#paint2_linear_327_36)"/>
<path d="M33.3337 0C15.1186 0 0.182152 14.7543 0.182152 33.1516V114.938C9.47188 119.491 19.1259 122.406 28.78 122.406C40.2555 122.406 46.4487 115.484 46.4487 106.012V67.3961H74.8643V105.83C74.8643 120.767 65.5746 132.971 34.0623 132.971C14.9364 132.971 0 128.781 0 128.781V198.545H48.6345C66.8496 198.545 81.7861 183.791 81.7861 165.394V0H33.3337Z" fill="url(#paint3_linear_327_36)"/>
<path d="M124.956 0C106.741 0 91.8042 14.7543 91.8042 33.1516V76.5037C100.183 69.3998 114.755 64.846 138.253 65.9389C150.821 66.4853 164.301 69.9462 164.301 69.9462V83.9719C157.561 80.511 149.546 77.4144 139.164 76.6858C121.313 75.4108 110.566 84.154 110.566 99.4548C110.566 114.938 121.313 123.681 139.164 122.224C149.546 121.495 157.561 118.216 164.301 114.938V128.963C164.301 128.963 151.003 132.424 138.253 132.971C114.755 134.064 100.183 129.51 91.8042 122.406V198.91H140.439C158.654 198.91 173.59 184.155 173.59 165.758V0H124.956Z" fill="url(#paint4_linear_327_36)"/>
<defs>
<linearGradient id="paint0_linear_327_36" x1="183.396" y1="112.045" x2="265.25" y2="112.045" gradientUnits="userSpaceOnUse">
<stop stop-color="#007940"/>
<stop offset="0.2285" stop-color="#00873F"/>
<stop offset="0.7433" stop-color="#40A737"/>
<stop offset="1" stop-color="#5CB531"/>
</linearGradient>
<linearGradient id="paint1_linear_327_36" x1="183.394" y1="99.2841" x2="265.254" y2="99.2841" gradientUnits="userSpaceOnUse">
<stop stop-color="#007940"/>
<stop offset="0.2285" stop-color="#00873F"/>
<stop offset="0.7433" stop-color="#40A737"/>
<stop offset="1" stop-color="#5CB531"/>
</linearGradient>
<linearGradient id="paint2_linear_327_36" x1="183.394" y1="85.4063" x2="265.252" y2="85.4063" gradientUnits="userSpaceOnUse">
<stop stop-color="#007940"/>
<stop offset="0.2285" stop-color="#00873F"/>
<stop offset="0.7433" stop-color="#40A737"/>
<stop offset="1" stop-color="#5CB531"/>
</linearGradient>
<linearGradient id="paint3_linear_327_36" x1="0.143581" y1="99.2841" x2="83.2649" y2="99.2841" gradientUnits="userSpaceOnUse">
<stop stop-color="#1F286F"/>
<stop offset="0.4751" stop-color="#004E94"/>
<stop offset="0.8261" stop-color="#0066B1"/>
<stop offset="1" stop-color="#006FBC"/>
</linearGradient>
<linearGradient id="paint4_linear_327_36" x1="91.3332" y1="99.2841" x2="172.063" y2="99.2841" gradientUnits="userSpaceOnUse">
<stop stop-color="#6C2C2F"/>
<stop offset="0.1735" stop-color="#882730"/>
<stop offset="0.5731" stop-color="#BE1833"/>
<stop offset="0.8585" stop-color="#DC0436"/>
<stop offset="1" stop-color="#E60039"/>
</linearGradient>
</defs>
</svg>
