<svg width="1000" height="325" viewBox="0 0 1000 325" fill="none" xmlns="http://www.w3.org/2000/svg">
<g clip-path="url(#clip0_31_20)">
<path d="M651.19 0.5C580.26 0.5 516.87 37.27 516.87 105.19C516.87 183.09 629.29 188.47 629.29 227.61C629.29 244.09 610.41 258.84 578.15 258.84C532.38 258.84 498.17 238.23 498.17 238.23L483.53 306.78C483.53 306.78 522.94 324.19 575.26 324.19C652.81 324.19 713.84 285.62 713.84 216.53C713.84 134.21 600.95 128.99 600.95 92.67C600.95 79.76 616.45 65.62 648.61 65.62C684.9 65.62 714.5 80.61 714.5 80.61L728.83 14.41C728.83 14.41 696.61 0.5 651.18 0.5H651.19ZM2.22 5.5L0.5 15.49C0.5 15.49 30.34 20.95 57.22 31.85C91.83 44.34 94.29 51.62 100.12 74.2L163.63 319.03H248.77L379.93 5.5H294.99L210.71 218.67L176.32 37.97C173.17 17.29 157.19 5.49 137.64 5.49H2.23L2.22 5.5ZM414.09 5.5L347.46 319.03H428.46L494.85 5.5H414.09ZM865.85 5.5C846.32 5.5 835.97 15.96 828.38 34.23L709.71 319.03H794.65L811.08 271.56H914.56L924.55 319.03H999.5L934.12 5.5H865.85ZM876.9 90.21L902.08 207.86H834.63L876.91 90.21H876.9Z" fill="white"/>
</g>
<defs>
<clipPath id="clip0_31_20">
<rect width="1000" height="324.68" fill="white"/>
</clipPath>
</defs>
</svg>
